{
  "title": "In Time (2011) DVDRip XviD-MAX",
  "uid": 6964457,
  "size": 1416894624,
  "categoryP": "video",
  "categoryS": "movies",
  "magnet": "?xt=urn:btih:cb8dc1959bee01e714f9f082de5abf7d0bc005ee&amp;dn=In+Time+%282011%29+DVDRip+XviD-MAX&amp;tr=udp%3A%2F%2Ftracker.openbittorrent.com%3A80&amp;tr=udp%3A%2F%2Fopen.demonii.com%3A1337&amp;tr=udp%3A%2F%2Ftracker.coppersurfer.tk%3A6969&amp;tr=udp%3A%2F%2Fexodus.desync.com%3A6969",
  "seeders": 56,
  "leechers": 11,
  "uploader": "extremezone",
  "files": 8,
  "time": 1326877660,
  "description": " &lt;a href=&quot;http://www.hotimg.com/direct/BvHt28y.jpg&quot; rel=&quot;nofollow&quot; target=&quot;_NEW&quot;&gt;http://www.hotimg.com/direct/BvHt28y.jpg&lt;/a&gt;\n\nScreens:\n &lt;a href=&quot;\nhttp://www.hotimg.com/direct/dtn8Ra2.jpg&quot; rel=&quot;nofollow&quot; target=&quot;_NEW&quot;&gt;\nhttp://www.hotimg.com/direct/dtn8Ra2.jpg&lt;/a&gt;\n &lt;a href=&quot;\nhttp://www.hotimg.com/direct/GQ7xPY5.jpg&quot; rel=&quot;nofollow&quot; target=&quot;_NEW&quot;&gt;\nhttp://www.hotimg.com/direct/GQ7xPY5.jpg&lt;/a&gt;\n &lt;a href=&quot;\nhttp://www.hotimg.com/direct/DF7rQZX.jpg&quot; rel=&quot;nofollow&quot; target=&quot;_NEW&quot;&gt;\nhttp://www.hotimg.com/direct/DF7rQZX.jpg&lt;/a&gt;\n &lt;a href=&quot;\nhttp://www.hotimg.com/direct/8D9TYxY.jpg&quot; rel=&quot;nofollow&quot; target=&quot;_NEW&quot;&gt;\nhttp://www.hotimg.com/direct/8D9TYxY.jpg&lt;/a&gt;\n\nAlternative:\n &lt;a href=&quot;\nhttp://www.postimg.com/image/58000/photo-57723.jpg&quot; rel=&quot;nofollow&quot; target=&quot;_NEW&quot;&gt;\nhttp://www.postimg.com/image/58000/photo-57723.jpg&lt;/a&gt;\n &lt;a href=&quot;\nhttp://www.postimg.com/image/58000/photo-57724.jpg&quot; rel=&quot;nofollow&quot; target=&quot;_NEW&quot;&gt;\nhttp://www.postimg.com/image/58000/photo-57724.jpg&lt;/a&gt;\n &lt;a href=&quot;\nhttp://www.postimg.com/image/58000/photo-57725.jpg&quot; rel=&quot;nofollow&quot; target=&quot;_NEW&quot;&gt;\nhttp://www.postimg.com/image/58000/photo-57725.jpg&lt;/a&gt;\n &lt;a href=&quot;\nhttp://www.postimg.com/image/58000/photo-57726.jpg&quot; rel=&quot;nofollow&quot; target=&quot;_NEW&quot;&gt;\nhttp://www.postimg.com/image/58000/photo-57726.jpg&lt;/a&gt;\n\nScreenCaps:\n &lt;a href=&quot;\nhttp://www.postimg.com/image/58000/photo-57727.jpg&quot; rel=&quot;nofollow&quot; target=&quot;_NEW&quot;&gt;\nhttp://www.postimg.com/image/58000/photo-57727.jpg&lt;/a&gt;\n\nIn Time (2011) DVDRip XviD-MAX\nFormat                           : AVI\nFormat/Info                      : Audio Video Interleave\nFormat profile                   : OpenDML\nFile size                        : 1.30 GiB\nDuration                         : 1h 49mn\nOverall bit rate                 : 1 714 Kbps\nWriting application              : VirtualDubMod 1.5.10.2 (build 2542/release)\nWriting library                  : VirtualDubMod build 2542/release\nOriginal source form             : MAX TORRENTZ\nCopyright                        : SIGISMUNT\n\nVideo\nID                               : 0\nFormat                           : MPEG-4 Visual\nFormat profile                   : AdvancedSimple@L5\nFormat settings, BVOP            : Yes\nFormat settings, QPel            : No\nFormat settings, GMC             : No warppoints\nFormat settings, Matrix          : Default (H.263)\nCodec ID                         : XVID\nCodec ID/Hint                    : XviD\nDuration                         : 1h 49mn\nBit rate                         : 1 325 Kbps\nWidth                            : 640 pixels\nHeight                           : 272 pixels\nDisplay aspect ratio             : 2.35:1\nFrame rate                       : 23.976 fps\nResolution                       : 24 bits\nColorimetry                      : 4:2:0\nScan type                        : Progressive\nBits/(Pixel*Frame)               : 0.318\nStream size                      : 1.01 GiB (77%)\nWriting library                  : XviD 61\n\nAudio\nID                               : 1\nFormat                           : AC-3\nFormat/Info                      : Audio Coding 3\nCodec ID                         : 2000\nDuration                         : 1h 49mn\nBit rate mode                    : Constant\nBit rate                         : 384 Kbps\nChannel(s)                       : 6 channels\nChannel positions                : Front: L C R, Surround: L R, LFE\nSampling rate                    : 48.0 KHz\nStream size                      : 300 MiB (22%)\nAlignment                        : Aligned on interleaves\nInterleave, duration             : 64 ms (1.54 video frames)\nInterleave, preload duration     : 192 ms\n &lt;a href=&quot;\nhttp://www.imdb.com/title/tt1637688/&quot; rel=&quot;nofollow&quot; target=&quot;_NEW&quot;&gt;\nhttp://www.imdb.com/title/tt1637688/&lt;/a&gt;\n\nSource: DVD (perfect a/v/sync quality,sample included)\nThis torrent is not seedbox supported,please seed it to the MAX\n\nNote:If you have something to offer as early releases,seedboxes,links,accounts,etc\nplease contact us on piratepedia[@]msn/gmail.com or our website torentz 3xforum ro\n\nIn Time (2011) DVDRip XviD-MAX Torrent Free Download\n &lt;a href=&quot;\nhttp://thepiratebay.se/user/extremezone/0/7&quot; rel=&quot;nofollow&quot; target=&quot;_NEW&quot;&gt;\nhttp://thepiratebay.se/user/extremezone/0/7&lt;/a&gt;\n\nHow To Get Your Maxspeed (uTorrent)\n\nTorrent Client - Preferences - Bandwidth - Number of connections - Set aprox. 500 for each \nTorrent Client - Preferences - BiTorrent - Protocol Encryption - Forced\nBandwidth Allocation - High (Set download/upload limit - Unlimited)\nStop Other Active Torrents - Start downloading and wait for connections.\nEnjoy and Seed for at least 1:1 ratio. Don't forget to say thanks/leave reviews.\nBefore downloading you should check/google search sample &quot;release name&quot;&quot;sample&quot;.\nGreets to all actual/future p2p/scene QUALITY groups and affiliate websites.\nDon't trust IMDb robot or bad ratings,always watch some trailers first.\nIgnore stupid comments/fake/mislabeled/no-DVDrips/CAM/TS/RAR uploads.\nPlease spread this release/torrent to your friends/forums/etc.\nIf you need translation subs visit some subtitles sites.\nReport if you see online streaming or other spam links.\nRecommended movie player VLC PLAYER.",
  "parsed": {
    "xt": "urn:btih:cb8dc1959bee01e714f9f082de5abf7d0bc005ee",
    "dn": "In Time (2011) DVDRip XviD-MAX",
    "tr": [
      "udp://exodus.desync.com:6969",
      "udp://open.demonii.com:1337",
      "udp://tracker.coppersurfer.tk:6969",
      "udp://tracker.openbittorrent.com:80"
    ],
    "infoHash": "cb8dc1959bee01e714f9f082de5abf7d0bc005ee",
    "infoHashBuffer": {
      "type": "Buffer",
      "data": [
        203,
        141,
        193,
        149,
        155,
        238,
        1,
        231,
        20,
        249,
        240,
        130,
        222,
        90,
        191,
        125,
        11,
        192,
        5,
        238
      ]
    },
    "name": "In Time (2011) DVDRip XviD-MAX",
    "announce": [
      "udp://exodus.desync.com:6969",
      "udp://open.demonii.com:1337",
      "udp://tracker.coppersurfer.tk:6969",
      "udp://tracker.openbittorrent.com:80"
    ],
    "urlList": []
  },
  "previous": 67,
  "peers": 57,
  "last_updated": "2016-12-25T14:03:04.914Z"
}